<svg id="visual" viewBox="0 0 900 600" width="900" height="600" xmlns="http://www.w3.org/2000/svg" xmlns:xlink="http://www.w3.org/1999/xlink" version="1.1"><path d="M0 564L21.5 565.3C43 566.7 86 569.3 128.8 569.3C171.7 569.3 214.3 566.7 257.2 564.5C300 562.3 343 560.7 385.8 558.8C428.7 557 471.3 555 514.2 555.3C557 555.7 600 558.3 642.8 558.5C685.7 558.7 728.3 556.3 771.2 558C814 559.7 857 565.3 878.5 568.2L900 571L900 601L878.5 601C857 601 814 601 771.2 601C728.3 601 685.7 601 642.8 601C600 601 557 601 514.2 601C471.3 601 428.7 601 385.8 601C343 601 300 601 257.2 601C214.3 601 171.7 601 128.8 601C86 601 43 601 21.5 601L0 601Z" fill="#2c7561"></path><path d="M0 581L21.5 580C43 579 86 577 128.8 575.3C171.7 573.7 214.3 572.3 257.2 573.2C300 574 343 577 385.8 578.8C428.7 580.7 471.3 581.3 514.2 580.5C557 579.7 600 577.3 642.8 576.7C685.7 576 728.3 577 771.2 576.8C814 576.7 857 575.3 878.5 574.7L900 574L900 601L878.5 601C857 601 814 601 771.2 601C728.3 601 685.7 601 642.8 601C600 601 557 601 514.2 601C471.3 601 428.7 601 385.8 601C343 601 300 601 257.2 601C214.3 601 171.7 601 128.8 601C86 601 43 601 21.5 601L0 601Z" fill="#2d9077"></path><path d="M0 586L21.5 586.3C43 586.7 86 587.3 128.8 587.2C171.7 587 214.3 586 257.2 586C300 586 343 587 385.8 587.8C428.7 588.7 471.3 589.3 514.2 587.7C557 586 600 582 642.8 581.3C685.7 580.7 728.3 583.3 771.2 583.2C814 583 857 580 878.5 578.5L900 577L900 601L878.5 601C857 601 814 601 771.2 601C728.3 601 685.7 601 642.8 601C600 601 557 601 514.2 601C471.3 601 428.7 601 385.8 601C343 601 300 601 257.2 601C214.3 601 171.7 601 128.8 601C86 601 43 601 21.5 601L0 601Z" fill="#29ab8f"></path></svg>