<svg width="512" height="512" viewBox="0 0 512 512" fill="none" xmlns="http://www.w3.org/2000/svg">
<path d="M158.075 297.439C154.259 337.129 127.247 414.054 194.292 432.695C293.438 407.971 289.199 278.579 308.871 208.013L229.205 208.013L387.398 56.1196C406.176 85.7092 472.754 208.013 472.754 208.013H387.398C387.398 208.013 366.913 436.838 229.205 436.838C215.411 436.838 203.888 435.363 194.292 432.695C183.499 435.387 171.482 436.838 158.075 436.838C21.5061 436.838 -3.91126 342.81 0.451369 297.439H158.075Z" fill="#333333"/>
<mask id="mask0_304_19" style="mask-type:alpha" maskUnits="userSpaceOnUse" x="12" y="42" width="501" height="428">
<rect width="235.85" height="13.3308" transform="matrix(0.93033 -0.366723 0.445062 0.895499 180.374 457.281)" fill="#333333"/>
<rect width="356.895" height="13.3308" transform="matrix(0.93033 -0.366723 0.445062 0.895499 100.01 436.447)" fill="#333333"/>
<rect width="394.994" height="13.3308" transform="matrix(0.93033 -0.366723 0.445062 0.895499 64.5647 424.16)" fill="#333333"/>
<rect width="281.052" height="13.3308" transform="matrix(0.93033 -0.366723 0.445062 0.895499 135.677 448.644)" fill="#333333"/>
<rect width="437.831" height="13.3308" transform="matrix(0.93033 -0.366723 0.445062 0.895499 24.7119 413.615)" fill="#333333"/>
<rect width="517.403" height="13.3308" transform="matrix(0.93033 -0.366723 0.445062 0.895499 24.7119 387.357)" fill="#333333"/>
<rect width="511.64" height="13.3308" transform="matrix(0.93033 -0.366723 0.445062 0.895499 24.7119 361.1)" fill="#333333"/>
<rect width="503.964" height="13.3308" transform="matrix(0.93033 -0.366723 0.445062 0.895499 12.1218 313.546)" fill="#333333"/>
<rect width="512.307" height="13.3308" transform="matrix(0.93033 -0.366723 0.445062 0.895499 12.1218 339.795)" fill="#333333"/>
<rect width="291.474" height="13.3308" transform="matrix(0.93033 -0.366723 0.445062 0.895499 196.569 214.587)" fill="#333333"/>
<rect width="249.678" height="13.3308" transform="matrix(0.93033 -0.366723 0.445062 0.895499 240.58 173.351)" fill="#333333"/>
<rect width="249.678" height="13.3308" transform="matrix(0.93033 -0.366723 0.445062 0.895499 242.905 147.69)" fill="#333333"/>
<rect width="249.678" height="13.3308" transform="matrix(0.93033 -0.366723 0.445062 0.895499 218.658 134.562)" fill="#333333"/>
</mask>
<g mask="url(#mask0_304_19)">
<path d="M182.784 297.446C178.968 337.136 151.956 414.061 219.001 432.703C318.148 407.979 313.908 278.587 333.58 208.02H253.914L412.107 56.1272C430.885 85.7168 497.463 208.02 497.463 208.02H412.107C412.107 208.02 391.622 436.845 253.914 436.845C240.121 436.845 228.597 435.371 219.001 432.703C208.209 435.394 196.191 436.845 182.785 436.845C46.2153 436.845 20.798 342.817 25.1606 297.446H182.784Z" fill="#333333"/>
</g>
</svg>
