<svg width="1200" height="630" viewBox="0 0 1200 630" fill="none" xmlns="http://www.w3.org/2000/svg">
  <rect width="1200" height="630" fill="#FDF9F2"/>
  <circle cx="173" cy="129" r="136" fill="#F0D6B7" fill-opacity="0.65"/>
  <circle cx="1013" cy="504" r="166" fill="#E7F0EC"/>
  <rect x="72" y="72" width="1056" height="486" rx="40" fill="white" fill-opacity="0.88" stroke="#EADFCF"/>
  <rect x="122" y="122" width="108" height="108" rx="28" fill="url(#paint0_linear_301_2)"/>
  <path d="M154.839 164.132H170.551V172.772H154.839V164.132ZM183.259 144.86H191.995V208H183.259V144.86ZM154.935 144.86H170.551V153.5H154.935V144.86Z" fill="white"/>
  <path d="M212.819 144.86H229.491V208H212.819V144.86ZM232.179 144.86H248.851V153.5H232.179V144.86Z" fill="white" fill-opacity="0.85"/>
  <text x="122" y="314" fill="#CC8F5B" font-family="'Hiragino Sans', 'Yu Gothic', sans-serif" font-size="24" font-weight="700" letter-spacing="5.76">町のIT相談所</text>
  <text x="122" y="388" fill="#2B2926" font-family="'Hiragino Sans', 'Yu Gothic', sans-serif" font-size="64" font-weight="700">ウェブでもっと</text>
  <text x="122" y="456" fill="#4F463F" font-family="'Hiragino Sans', 'Yu Gothic', sans-serif" font-size="30">小さなITの困りごとを、相談しやすく整えます。</text>
  <text x="122" y="507" fill="#4F463F" font-family="'Hiragino Sans', 'Yu Gothic', sans-serif" font-size="24">Excel整理・業務効率化・Webシステム・ホームページ改善に対応</text>
  <defs>
    <linearGradient id="paint0_linear_301_2" x1="122" y1="122" x2="230" y2="230" gradientUnits="userSpaceOnUse">
      <stop stop-color="#3F6D60"/>
      <stop offset="1" stop-color="#4A7082"/>
    </linearGradient>
  </defs>
</svg>
